<?xml version="1.0" standalone="no"?>
<!DOCTYPE svg PUBLIC "-//W3C//DTD SVG 20010904//EN"
 "http://www.w3.org/TR/2001/REC-SVG-20010904/DTD/svg10.dtd">
<svg version="1.0" xmlns="http://www.w3.org/2000/svg"
 width="200.000000pt" height="200.000000pt" viewBox="0 0 200.000000 200.000000"
 preserveAspectRatio="xMidYMid meet">
<metadata>
Created by potrace 1.16, written by Peter Selinger 2001-2019
</metadata>
<g transform="translate(0.000000,200.000000) scale(0.100000,-0.100000)"
fill="#000000" stroke="none">
<path d="M942 1838 c-281 -44 -490 -445 -468 -898 16 -350 159 -631 375 -738
63 -31 83 -36 145 -36 177 -1 318 108 427 329 27 55 61 145 76 200 25 94 27
113 27 310 0 195 -2 217 -27 308 -96 359 -313 564 -555 525z m160 -27 c221
-76 373 -335 410 -699 17 -175 -17 -419 -80 -562 -19 -44 -22 -46 -98 -68
l-79 -24 -53 21 c-59 24 -104 26 -151 10 -18 -6 -34 -9 -37 -6 -3 3 1 29 10
59 11 36 29 66 57 93 60 59 107 162 89 194 -6 11 -3 22 8 34 18 21 9 45 -24
62 -10 6 -19 17 -19 25 0 8 -10 19 -22 25 -16 7 -23 19 -24 40 -1 16 -5 -2 -9
-41 -6 -52 -13 -77 -29 -93 -16 -16 -18 -26 -12 -43 7 -20 4 -24 -23 -34 -25
-8 -32 -17 -34 -42 -5 -48 14 -75 49 -70 27 4 29 2 29 -27 0 -40 -16 -55 -56
-55 -63 0 -64 2 -64 116 0 100 -1 104 -22 104 -21 0 -21 1 -3 13 13 10 16 21
12 38 -5 18 -1 28 15 38 19 12 20 11 13 -6 -9 -21 -10 -29 -7 -175 1 -65 6
-108 12 -108 7 0 10 81 9 234 -1 128 1 238 5 245 5 7 -2 11 -18 11 -24 0 -26
-4 -26 -39 0 -22 6 -46 14 -53 18 -18 3 -56 -27 -67 -60 -23 -79 -89 -82 -280
-2 -174 -3 -175 -80 -186 -29 -5 -53 -2 -81 10 -21 10 -52 20 -69 24 -27 6
-33 14 -57 88 -47 139 -61 247 -55 433 6 201 32 314 107 465 122 246 315 360
502 296z m-473 -1308 c14 -9 21 -11 17 -4 -5 8 4 6 25 -4 24 -13 44 -15 78
-11 60 9 72 12 95 21 13 6 21 4 24 -3 2 -7 8 -10 12 -7 5 3 32 -3 60 -14 47
-18 56 -18 106 -5 77 20 111 18 137 -8 20 -20 30 -22 74 -17 28 4 56 10 63 14
7 4 27 11 46 15 30 7 32 6 21 -11 -7 -11 -18 -17 -24 -14 -7 2 -12 -1 -10 -8
1 -7 -8 -12 -20 -11 -12 0 -20 -3 -17 -8 3 -4 -1 -9 -8 -9 -66 -6 -85 -5 -103
6 -33 20 -82 25 -137 13 -62 -13 -98 -13 -107 -1 -8 11 -33 15 -124 18 -45 1
-73 -1 -65 -6 7 -5 -9 -7 -40 -5 -29 1 -58 8 -64 14 -7 7 -20 12 -29 12 -9 0
-24 11 -33 25 -19 29 -10 32 23 8z m49 -71 c39 -20 50 -19 125 5 26 8 55 11
65 7 9 -4 20 -6 24 -6 4 1 26 -5 48 -14 40 -16 51 -16 149 2 22 5 56 -1 101
-16 64 -22 71 -22 114 -8 25 8 46 13 46 9 0 -3 -10 -19 -23 -34 -27 -34 -74
-44 -119 -24 -61 28 -99 37 -116 28 -48 -24 -88 -30 -126 -20 -25 7 -35 14
-27 18 18 12 -163 4 -214 -9 -23 -6 -38 2 -66 32 -45 50 -40 59 19 30z m197
-62 c3 -5 13 -6 22 -3 9 4 14 2 11 -3 -10 -16 91 -22 183 -11 35 5 63 0 112
-18 36 -13 69 -20 73 -17 4 4 4 1 0 -6 -5 -7 -14 -11 -22 -8 -9 3 -11 0 -7
-11 5 -12 2 -15 -10 -10 -10 4 -16 2 -14 -6 1 -7 -5 -10 -13 -8 -83 22 -109
24 -157 8 -48 -16 -93 -14 -93 5 0 5 -4 7 -10 3 -5 -3 -24 1 -43 9 -32 13 -45
13 -132 -4 -21 -5 -36 1 -30 10 3 6 -2 10 -11 10 -10 0 -14 3 -11 7 4 3 0 11
-9 17 -15 12 2 16 73 20 11 1 19 4 17 8 -4 6 18 13 53 17 6 0 14 -3 18 -9z m5
-88 c0 -4 8 -8 18 -8 9 -1 38 -7 64 -14 38 -11 56 -11 102 0 46 11 63 11 98 0
l43 -13 -60 -28 c-33 -16 -69 -28 -80 -27 -11 0 -28 -2 -38 -7 -28 -12 -171
20 -161 36 3 5 -1 6 -9 4 -7 -3 -24 3 -37 15 -13 11 -28 20 -34 20 -16 0 6 17
29 23 33 8 65 7 65 -1z"/>
<path d="M1040 1498 c-86 -60 -110 -91 -110 -141 0 -45 22 -87 46 -87 11 0 13
9 8 39 -3 21 -2 46 3 55 6 11 9 4 9 -25 1 -25 8 -47 19 -57 16 -16 17 -15 11
11 -9 39 7 62 53 75 39 12 81 52 81 78 0 7 -13 0 -28 -16 -24 -24 -99 -56
-109 -46 -2 1 9 20 23 42 27 39 58 104 52 109 -2 1 -28 -15 -58 -37z"/>
<path d="M853 1209 c-18 -5 -33 -16 -33 -23 0 -21 25 -37 46 -30 14 4 15 3 5
-4 -22 -16 -2 -18 139 -16 157 2 149 1 130 15 -12 8 -10 9 9 4 15 -5 27 -2 32
6 15 25 10 37 -22 48 -38 13 -261 13 -306 0z"/>
</g>
</svg>
